<mxfile host="app.diagrams.net" agent="Mozilla/5.0 (Windows NT 10.0; Win64; x64) AppleWebKit/537.36 (KHTML, like Gecko) Chrome/132.0.0.0 Safari/537.36" version="26.0.14">
  <diagram name="PÃ¡gina-1" id="JClQkr4GVp1-gIbkpUeY">
    <mxGraphModel dx="794" dy="454" grid="1" gridSize="10" guides="1" tooltips="1" connect="1" arrows="1" fold="1" page="1" pageScale="1" pageWidth="827" pageHeight="1169" math="0" shadow="0">
      <root>
        <mxCell id="0" />
        <mxCell id="1" parent="0" />
        <mxCell id="sVM9G5rSfvuoGjEAhM07-1" value="" style="rounded=0;whiteSpace=wrap;html=1;" vertex="1" parent="1">
          <mxGeometry x="70" y="510" width="120" height="60" as="geometry" />
        </mxCell>
        <mxCell id="sVM9G5rSfvuoGjEAhM07-4" value="" style="rounded=0;whiteSpace=wrap;html=1;" vertex="1" parent="1">
          <mxGeometry x="350" y="510" width="120" height="60" as="geometry" />
        </mxCell>
        <mxCell id="sVM9G5rSfvuoGjEAhM07-5" value="" style="rounded=0;whiteSpace=wrap;html=1;" vertex="1" parent="1">
          <mxGeometry x="350" y="510" width="120" height="60" as="geometry" />
        </mxCell>
        <mxCell id="sVM9G5rSfvuoGjEAhM07-7" value="" style="rounded=0;whiteSpace=wrap;html=1;" vertex="1" parent="1">
          <mxGeometry x="620" y="510" width="120" height="60" as="geometry" />
        </mxCell>
        <mxCell id="sVM9G5rSfvuoGjEAhM07-8" value="" style="rhombus;whiteSpace=wrap;html=1;" vertex="1" parent="1">
          <mxGeometry x="230" y="500" width="80" height="80" as="geometry" />
        </mxCell>
        <mxCell id="sVM9G5rSfvuoGjEAhM07-9" value="" style="rhombus;whiteSpace=wrap;html=1;" vertex="1" parent="1">
          <mxGeometry x="510" y="500" width="80" height="80" as="geometry" />
        </mxCell>
        <mxCell id="sVM9G5rSfvuoGjEAhM07-10" value="Clientes" style="text;html=1;align=center;verticalAlign=middle;whiteSpace=wrap;rounded=0;" vertex="1" parent="1">
          <mxGeometry x="100" y="525" width="60" height="30" as="geometry" />
        </mxCell>
        <mxCell id="sVM9G5rSfvuoGjEAhM07-11" value="Pedidos" style="text;html=1;align=center;verticalAlign=middle;whiteSpace=wrap;rounded=0;" vertex="1" parent="1">
          <mxGeometry x="380" y="525" width="60" height="30" as="geometry" />
        </mxCell>
        <mxCell id="sVM9G5rSfvuoGjEAhM07-12" value="Produtos" style="text;html=1;align=center;verticalAlign=middle;whiteSpace=wrap;rounded=0;" vertex="1" parent="1">
          <mxGeometry x="650" y="525" width="60" height="30" as="geometry" />
        </mxCell>
        <mxCell id="sVM9G5rSfvuoGjEAhM07-13" value="idCliente" style="ellipse;whiteSpace=wrap;html=1;align=center;" vertex="1" parent="1">
          <mxGeometry x="70" y="430" width="100" height="40" as="geometry" />
        </mxCell>
        <mxCell id="sVM9G5rSfvuoGjEAhM07-14" value="E mail" style="ellipse;whiteSpace=wrap;html=1;align=center;" vertex="1" parent="1">
          <mxGeometry x="30" y="620" width="90" height="40" as="geometry" />
        </mxCell>
        <mxCell id="sVM9G5rSfvuoGjEAhM07-15" value="Nome" style="ellipse;whiteSpace=wrap;html=1;align=center;" vertex="1" parent="1">
          <mxGeometry x="140" y="620" width="100" height="40" as="geometry" />
        </mxCell>
        <mxCell id="sVM9G5rSfvuoGjEAhM07-17" value="" style="endArrow=none;html=1;rounded=0;exitX=1;exitY=1;exitDx=0;exitDy=0;" edge="1" parent="1" source="sVM9G5rSfvuoGjEAhM07-1">
          <mxGeometry relative="1" as="geometry">
            <mxPoint x="190" y="580" as="sourcePoint" />
            <mxPoint x="190" y="620" as="targetPoint" />
            <Array as="points" />
          </mxGeometry>
        </mxCell>
        <mxCell id="sVM9G5rSfvuoGjEAhM07-19" value="" style="endArrow=none;html=1;rounded=0;" edge="1" parent="1">
          <mxGeometry relative="1" as="geometry">
            <mxPoint x="69" y="570" as="sourcePoint" />
            <mxPoint x="70" y="620" as="targetPoint" />
          </mxGeometry>
        </mxCell>
        <mxCell id="sVM9G5rSfvuoGjEAhM07-21" value="" style="endArrow=none;html=1;rounded=0;" edge="1" parent="1">
          <mxGeometry relative="1" as="geometry">
            <mxPoint x="190" y="539.5" as="sourcePoint" />
            <mxPoint x="350" y="539.5" as="targetPoint" />
          </mxGeometry>
        </mxCell>
        <mxCell id="sVM9G5rSfvuoGjEAhM07-22" value="" style="endArrow=none;html=1;rounded=0;" edge="1" parent="1">
          <mxGeometry relative="1" as="geometry">
            <mxPoint x="119" y="470" as="sourcePoint" />
            <mxPoint x="119" y="510" as="targetPoint" />
            <Array as="points" />
          </mxGeometry>
        </mxCell>
        <mxCell id="sVM9G5rSfvuoGjEAhM07-24" value="idCliente" style="ellipse;whiteSpace=wrap;html=1;align=center;" vertex="1" parent="1">
          <mxGeometry x="300" y="620" width="100" height="40" as="geometry" />
        </mxCell>
        <mxCell id="sVM9G5rSfvuoGjEAhM07-25" value="idProduto" style="ellipse;whiteSpace=wrap;html=1;align=center;" vertex="1" parent="1">
          <mxGeometry x="420" y="620" width="100" height="40" as="geometry" />
        </mxCell>
        <mxCell id="sVM9G5rSfvuoGjEAhM07-26" value="Data" style="ellipse;whiteSpace=wrap;html=1;align=center;" vertex="1" parent="1">
          <mxGeometry x="420" y="430" width="100" height="40" as="geometry" />
        </mxCell>
        <mxCell id="sVM9G5rSfvuoGjEAhM07-27" value="idPedido" style="ellipse;whiteSpace=wrap;html=1;align=center;" vertex="1" parent="1">
          <mxGeometry x="300" y="430" width="100" height="40" as="geometry" />
        </mxCell>
        <mxCell id="sVM9G5rSfvuoGjEAhM07-28" value="idProduto" style="ellipse;whiteSpace=wrap;html=1;align=center;" vertex="1" parent="1">
          <mxGeometry x="570" y="430" width="100" height="40" as="geometry" />
        </mxCell>
        <mxCell id="sVM9G5rSfvuoGjEAhM07-29" value="Marca" style="ellipse;whiteSpace=wrap;html=1;align=center;" vertex="1" parent="1">
          <mxGeometry x="680" y="430" width="100" height="40" as="geometry" />
        </mxCell>
        <mxCell id="sVM9G5rSfvuoGjEAhM07-30" value="Valor" style="ellipse;whiteSpace=wrap;html=1;align=center;" vertex="1" parent="1">
          <mxGeometry x="660" y="620" width="100" height="40" as="geometry" />
        </mxCell>
        <mxCell id="sVM9G5rSfvuoGjEAhM07-31" value="" style="endArrow=none;html=1;rounded=0;" edge="1" parent="1">
          <mxGeometry relative="1" as="geometry">
            <mxPoint x="710" y="570" as="sourcePoint" />
            <mxPoint x="710" y="620" as="targetPoint" />
          </mxGeometry>
        </mxCell>
        <mxCell id="sVM9G5rSfvuoGjEAhM07-32" value="" style="endArrow=none;html=1;rounded=0;exitX=0.613;exitY=1.033;exitDx=0;exitDy=0;exitPerimeter=0;entryX=0.089;entryY=0.033;entryDx=0;entryDy=0;entryPerimeter=0;" edge="1" parent="1" source="sVM9G5rSfvuoGjEAhM07-28" target="sVM9G5rSfvuoGjEAhM07-7">
          <mxGeometry relative="1" as="geometry">
            <mxPoint x="549.5" y="670" as="sourcePoint" />
            <mxPoint x="549.5" y="761.3333129882812" as="targetPoint" />
          </mxGeometry>
        </mxCell>
        <mxCell id="sVM9G5rSfvuoGjEAhM07-33" value="" style="endArrow=none;html=1;rounded=0;entryX=0.5;entryY=1;entryDx=0;entryDy=0;exitX=0.911;exitY=-0.011;exitDx=0;exitDy=0;exitPerimeter=0;" edge="1" parent="1" source="sVM9G5rSfvuoGjEAhM07-7" target="sVM9G5rSfvuoGjEAhM07-29">
          <mxGeometry relative="1" as="geometry">
            <mxPoint x="730" y="500" as="sourcePoint" />
            <mxPoint x="490" y="590" as="targetPoint" />
          </mxGeometry>
        </mxCell>
        <mxCell id="sVM9G5rSfvuoGjEAhM07-34" value="" style="endArrow=none;html=1;rounded=0;entryX=1;entryY=1;entryDx=0;entryDy=0;exitX=0.5;exitY=0;exitDx=0;exitDy=0;" edge="1" parent="1" source="sVM9G5rSfvuoGjEAhM07-25" target="sVM9G5rSfvuoGjEAhM07-5">
          <mxGeometry relative="1" as="geometry">
            <mxPoint x="330" y="590" as="sourcePoint" />
            <mxPoint x="490" y="590" as="targetPoint" />
          </mxGeometry>
        </mxCell>
        <mxCell id="sVM9G5rSfvuoGjEAhM07-35" value="" style="endArrow=none;html=1;rounded=0;exitX=0;exitY=1;exitDx=0;exitDy=0;entryX=0.5;entryY=0;entryDx=0;entryDy=0;" edge="1" parent="1" source="sVM9G5rSfvuoGjEAhM07-5" target="sVM9G5rSfvuoGjEAhM07-24">
          <mxGeometry relative="1" as="geometry">
            <mxPoint x="330" y="590" as="sourcePoint" />
            <mxPoint x="490" y="590" as="targetPoint" />
          </mxGeometry>
        </mxCell>
        <mxCell id="sVM9G5rSfvuoGjEAhM07-36" value="" style="endArrow=none;html=1;rounded=0;exitX=0.5;exitY=1;exitDx=0;exitDy=0;entryX=1;entryY=0;entryDx=0;entryDy=0;" edge="1" parent="1" source="sVM9G5rSfvuoGjEAhM07-26" target="sVM9G5rSfvuoGjEAhM07-5">
          <mxGeometry relative="1" as="geometry">
            <mxPoint x="330" y="590" as="sourcePoint" />
            <mxPoint x="490" y="590" as="targetPoint" />
          </mxGeometry>
        </mxCell>
        <mxCell id="sVM9G5rSfvuoGjEAhM07-37" value="" style="endArrow=none;html=1;rounded=0;exitX=0.5;exitY=1;exitDx=0;exitDy=0;entryX=0;entryY=0;entryDx=0;entryDy=0;" edge="1" parent="1" source="sVM9G5rSfvuoGjEAhM07-27" target="sVM9G5rSfvuoGjEAhM07-5">
          <mxGeometry relative="1" as="geometry">
            <mxPoint x="330" y="590" as="sourcePoint" />
            <mxPoint x="490" y="590" as="targetPoint" />
          </mxGeometry>
        </mxCell>
        <mxCell id="sVM9G5rSfvuoGjEAhM07-38" value="" style="endArrow=none;html=1;rounded=0;entryX=0;entryY=0.5;entryDx=0;entryDy=0;exitX=1;exitY=0.5;exitDx=0;exitDy=0;" edge="1" parent="1" source="sVM9G5rSfvuoGjEAhM07-5" target="sVM9G5rSfvuoGjEAhM07-7">
          <mxGeometry relative="1" as="geometry">
            <mxPoint x="330" y="590" as="sourcePoint" />
            <mxPoint x="490" y="590" as="targetPoint" />
          </mxGeometry>
        </mxCell>
        <mxCell id="sVM9G5rSfvuoGjEAhM07-39" value="&lt;h1 style=&quot;margin-top: 0px;&quot;&gt;&lt;span style=&quot;background-color: transparent; color: light-dark(rgb(0, 0, 0), rgb(255, 255, 255));&quot;&gt;Diagrama ER - Projeto Loja&lt;/span&gt;&lt;span style=&quot;background-color: transparent; color: light-dark(rgb(0, 0, 0), rgb(255, 255, 255)); font-size: 12px; font-weight: normal;&quot;&gt;&amp;nbsp;&amp;nbsp;&lt;/span&gt;&lt;/h1&gt;&lt;div&gt;&lt;span style=&quot;background-color: transparent; color: light-dark(rgb(0, 0, 0), rgb(255, 255, 255)); font-size: 12px; font-weight: normal;&quot;&gt;Desenvolvido por: Samuel Dos Santos&lt;/span&gt;&lt;/div&gt;" style="text;html=1;whiteSpace=wrap;overflow=hidden;rounded=0;" vertex="1" parent="1">
          <mxGeometry x="30" y="700" width="340" height="120" as="geometry" />
        </mxCell>
      </root>
    </mxGraphModel>
  </diagram>
</mxfile>
